<svg xmlns="http://www.w3.org/2000/svg" width="68" height="68" fill="none">
  <circle cx="34" cy="34" r="34" fill="#E2E5F2"/>
  <path fill="#132576" d="M43.3755 43.2418v-3.3485c0-.9375-.1339-1.8751-.6697-2.8127-.5357-.9376-1.2054-1.7412-2.143-2.277-.9376-.6697-2.9467-.8036-3.8842-.8036l-2.1431 2.277.8037 1.7412v4.0182l-1.3394 1.4733-1.3394-1.4733v-4.0182l.9376-1.7412L31.321 34c-1.0715 0-3.0806.1339-4.0182.8036-.9376.5358-1.4733 1.3394-2.0091 2.277-.5357.9376-.6697 1.7412-.6697 2.8127v3.3485s3.4824 1.4733 9.3758 1.4733c5.8933 0 9.3757-1.4733 9.3757-1.4733zM33.9998 23.4187c-2.5448 0-4.0181 2.4109-3.6163 5.0897.4018 2.6788 1.7412 4.5539 3.6163 4.5539 1.8752 0 3.2146-1.8751 3.6164-4.5539.4018-2.8127-1.0715-5.0897-3.6164-5.0897z"/>
</svg>
