<svg xmlns="http://www.w3.org/2000/svg" width="40" height="40" fill="none">
  <circle cx="20" cy="20" r="20" fill="#FF8D30"/>
  <path fill="#161C35" d="M19.7743 19.2239c0 .189.1536.3375.3414.3375.3891 0 .7032.3139.7032.6952 0 .1857.1536.3375.3414.3375.1877 0 .3414-.1518.3414-.3375 0-.756-.6213-1.3702-1.386-1.3702-.1878 0-.3414.1519-.3414.3375zm5.5577 1.3702c.1911 0 .3413-.1518.3413-.3375 0-3.0307-2.492-5.4945-5.5576-5.4945-.1878 0-.3414.1519-.3414.3375 0 .1857.1536.3375.3414.3375 2.69 0 4.8749 2.1634 4.8749 4.8195 0 .1857.1536.3375.3414.3375z"/>
  <path fill="#161C35" d="M22.9047 20.2566c0 .1856.1536.3375.3414.3375s.3414-.1519.3414-.3375c0-1.8934-1.5567-3.4324-3.4718-3.4324-.1878 0-.3414.1519-.3414.3375 0 .189.1536.3375.3414.3375 1.5396 0 2.789 1.2387 2.789 2.7574zM20.1157 12.7c-.1878 0-.3414.1519-.3414.3375 0 .1856.1536.3375.3414.3375 3.8405 0 6.9641 3.0881 6.9641 6.8816 0 .1856.1502.3375.3414.3375.1877 0 .3414-.1519.3414-.3375 0-4.1681-3.4309-7.5566-7.6469-7.5566zm3.3352 11.1139l-.4472.2396c-.7544.4084-1.3415 1.5277-2.2725.684L18.3001 22.3 16.2 20.2566c-1.0551-1.3331.1264-1.6504.5394-2.3996l.2424-.4388c.2731-.4995.3721-1.0597.2902-1.62-.0786-.5602-.3346-1.0698-.7442-1.4748-.4984-.4928-1.1607-.7628-1.8674-.7628-.7066 0-1.3723.27-1.8708.7628l-.174.1755c-.9218.9112-1.0276 2.4806-.3005 4.4246.6862 1.8562 2.0688 3.8677 3.8849 5.6632 2.7686 2.7372 5.8513 4.3133 8.0634 4.3133.8739 0 1.6147-.2464 2.1405-.7661l.1775-.1755c.495-.4894.7715-1.1442.7749-1.8495-.0034-.6885-.2868-1.3635-.7749-1.8462-.8227-.8133-2.1097-.9956-3.1305-.4488z"/>
</svg>
