<svg width="62" height="62" viewBox="0 0 62 62" fill="none" xmlns="http://www.w3.org/2000/svg">
<circle cx="31" cy="31" r="31" fill="#FFD74B"/>
<path d="M37.6287 39.7497C36.9623 39.7311 36.3127 39.486 35.75 39.041C35.1625 38.5464 34.623 37.9688 34.1423 37.3197C33.7448 36.8247 33.0855 35.9922 32.8326 35.9922C32.5797 35.9922 32.399 37.0272 32.4081 37.7585C32.4119 38.2632 32.2599 38.7505 31.9835 39.1197C31.6693 39.4395 31.2856 39.6353 30.8816 39.6822H29.1474C26.6549 39.6139 24.2683 38.4137 22.4364 36.3072C19.1126 32.516 16.2584 25.271 16.141 24.956C16.029 24.6928 15.9821 24.3942 16.0062 24.0979C16.0303 23.8016 16.1243 23.5208 16.2764 23.291C16.6207 22.9334 17.0566 22.7417 17.5048 22.751H21.19H21.2984C21.6033 22.8064 21.8956 22.9405 22.1564 23.1447C22.402 23.3498 22.5985 23.6335 22.7255 23.966C23.1149 25.0044 23.5616 26.0081 24.0623 26.9697C25.2455 29.2197 25.7693 29.7372 25.959 29.8497C26.17 28.7948 26.2281 27.7014 26.1306 26.621C26.1623 26.1289 26.0972 25.6346 25.941 25.181C25.7426 24.9834 25.4992 24.8692 25.2455 24.8547L24.5861 24.0785C24.4597 23.336 25.119 22.6947 25.5797 22.4472C26.499 22.0885 27.4634 21.9435 28.4248 22.0197H29.0661C29.7183 21.9986 30.3702 22.0741 31.0081 22.2447C32.5435 22.6497 32.4893 24.191 32.4261 25.9685C32.4261 26.486 32.381 27.0935 32.381 27.791C32.381 27.9597 32.381 28.1397 32.381 28.331C32.3454 28.8208 32.3729 29.3145 32.4622 29.7935C33.2142 29.01 33.8474 28.0651 34.3319 27.0035C34.8548 25.9997 35.3139 24.9465 35.7048 23.8535C35.8239 23.5078 36.028 23.2181 36.2877 23.026C36.5474 22.834 36.8493 22.7495 37.15 22.7847H41.0158C41.1299 22.7712 41.2449 22.7712 41.359 22.7847C42.2622 22.7847 42.7952 23.111 43.0119 23.741C43.2287 24.371 43.1655 25.6085 40.8803 28.9272L39.9771 30.1985C39.5395 30.7277 39.1626 31.3296 38.8571 31.9872C39.1992 32.4716 39.5875 32.9023 40.0132 33.2697C41.0513 34.244 41.9649 35.4084 42.7229 36.7235C42.9007 36.9792 43.017 37.2921 43.0585 37.6264C43.1001 37.9607 43.0651 38.3028 42.9577 38.6135C42.7685 38.9576 42.5152 39.2396 42.2195 39.4355C41.9239 39.6314 41.5946 39.7353 41.2597 39.7385L37.8364 39.7947L37.6287 39.7497ZM32.8326 34.3047C33.6455 34.3047 34.35 35.1935 35.0997 36.1272C35.5046 36.678 35.9592 37.1688 36.4545 37.5897C36.829 37.9 37.2692 38.0645 37.719 38.0622H37.8093L41.2416 38.006C41.4109 37.9939 41.5766 37.9403 41.7293 37.8485L41.639 37.6685C40.9553 36.5079 40.1399 35.4772 39.2184 34.6085C38.1435 33.4835 37.5926 32.9547 37.5293 32.0885C37.4661 31.2222 37.9719 30.4685 38.9835 29.0397L39.8868 27.791C40.6493 26.8222 41.2753 25.7002 41.7384 24.4722C41.5368 24.4573 41.3348 24.4573 41.1332 24.4722H37.1861C37.1147 24.4523 37.0407 24.4523 36.9693 24.4722C36.5513 25.6663 36.0527 26.8142 35.479 27.9035C33.7719 31.076 32.9681 31.5035 32.399 31.5035C32.2226 31.5035 32.0489 31.4494 31.8932 31.346C30.99 30.7047 30.99 29.276 31.0442 28.241C31.0442 28.0722 31.0442 27.9035 31.0442 27.7572C31.0442 27.026 31.0442 26.396 31.0893 25.856C31.1616 23.966 31.0893 23.9547 30.7461 23.8535C30.1931 23.7174 29.6297 23.657 29.0661 23.6735H28.4429C27.8694 23.6587 27.2958 23.6963 26.7268 23.786C26.8129 23.8651 26.8891 23.9599 26.9526 24.0672C27.3251 24.7989 27.5109 25.6539 27.4855 26.5197C27.6029 28.376 27.5397 30.7947 26.5823 31.3797C26.4127 31.4785 26.2275 31.5285 26.0403 31.526C25.2003 31.526 24.3693 30.536 22.9513 27.8585C22.4071 26.8333 21.9212 25.7619 21.4971 24.6522L21.4248 24.5397C21.3336 24.4818 21.2363 24.4402 21.1358 24.416H17.5229H17.4597C17.9926 25.7885 20.5216 31.8635 23.3487 35.0472C24.9362 36.8638 26.993 37.9132 29.1474 38.006H30.8184C30.9036 37.9833 30.9857 37.9454 31.0623 37.8935C31.0623 37.8935 31.0623 37.8935 31.0623 37.7922C31.0623 37.4885 31.0623 34.8672 32.4893 34.4172C32.5998 34.363 32.715 34.3253 32.8326 34.3047Z" fill="#192144"/>
</svg>
