<svg width="62" height="62" viewBox="0 0 62 62" fill="none" xmlns="http://www.w3.org/2000/svg">
<circle cx="31" cy="31" r="31" fill="#FFD74B"/>
<path d="M33.53 43.7679H26.71V31.7893H24V25.865H26.63C26.43 23.1814 26.93 21.2221 28.15 19.885C28.7317 19.2915 29.4404 18.8173 30.2308 18.4927C31.0212 18.1682 31.8758 18.0003 32.74 18H37.52V23.7107H33.76C33.5385 24.4091 33.4538 25.1388 33.51 25.865H37.51V31.7893H33.51L33.53 43.7679ZM28.22 42.375H32V30.3964H36V27.2857H32V26.58C32 24.7229 32 23.0607 33 22.4386L33.19 22.3179H36V19.3929H32.78C32.1256 19.385 31.4768 19.5049 30.8756 19.7449C30.2744 19.9848 29.7342 20.3394 29.29 20.7857C28.29 21.9279 27.88 23.8407 28.19 26.4871L28.29 27.2579H25.5V30.3964H28.22V42.375Z" fill="#192144"/>
</svg>
