<svg width="62" height="62" viewBox="0 0 62 62" fill="none" xmlns="http://www.w3.org/2000/svg">
<circle cx="31" cy="31" r="31" fill="#FFD74B"/>
<path d="M35.8401 22.2009C36.8897 22.2032 37.8956 22.6211 38.6377 23.3633C39.3798 24.1054 39.7978 25.1113 39.8001 26.1609V35.8409C39.7978 36.8904 39.3798 37.8963 38.6377 38.6384C37.8956 39.3806 36.8897 39.7985 35.8401 39.8009H26.1601C25.1121 39.7962 24.1085 39.3772 23.3682 38.6353C22.628 37.8934 22.2112 36.8889 22.2089 35.8409V26.1609C22.2112 25.1128 22.628 24.1083 23.3682 23.3664C24.1085 22.6245 25.1121 22.2055 26.1601 22.2009H35.8401ZM35.8401 20.8809H26.1601C24.7598 20.8809 23.4168 21.4371 22.4266 22.4273C21.4364 23.4175 20.8801 24.7605 20.8801 26.1609V35.8409C20.8801 37.2412 21.4364 38.5842 22.4266 39.5744C23.4168 40.5646 24.7598 41.1209 26.1601 41.1209H35.8401C37.2405 41.1209 38.5835 40.5646 39.5737 39.5744C40.5638 38.5842 41.1201 37.2412 41.1201 35.8409V26.1609C41.1201 24.7605 40.5638 23.4175 39.5737 22.4273C38.5835 21.4371 37.2405 20.8809 35.8401 20.8809V20.8809Z" fill="#192144"/>
<path d="M31.0086 27.11C31.7796 27.11 32.5333 27.3387 33.1744 27.767C33.8155 28.1954 34.3152 28.8043 34.6102 29.5166C34.9053 30.2289 34.9825 31.0128 34.8321 31.769C34.6817 32.5252 34.3104 33.2198 33.7652 33.765C33.22 34.3102 32.5253 34.6815 31.7691 34.8319C31.0129 34.9824 30.2291 34.9052 29.5167 34.6101C28.8044 34.315 28.1955 33.8154 27.7672 33.1743C27.3388 32.5332 27.1102 31.7795 27.1102 31.0084C27.109 30.4962 27.2091 29.9887 27.4046 29.5152C27.6001 29.0417 27.8872 28.6115 28.2494 28.2493C28.6116 27.887 29.0419 27.5999 29.5154 27.4044C29.9889 27.2089 30.4963 27.1089 31.0086 27.11ZM31.0086 25.79C29.9761 25.7883 28.9663 26.0929 28.107 26.6652C27.2477 27.2376 26.5775 28.052 26.1811 29.0053C25.7848 29.9587 25.6802 31.0083 25.8806 32.0211C26.0809 33.034 26.5772 33.9646 27.3067 34.6953C28.0362 35.426 28.966 35.9239 29.9785 36.1259C30.991 36.328 32.0407 36.2252 32.9947 35.8305C33.9488 35.4358 34.7643 34.7669 35.3381 33.9086C35.9119 33.0502 36.2182 32.0409 36.2182 31.0084C36.2193 30.3236 36.0854 29.6452 35.8242 29.0121C35.5629 28.379 35.1793 27.8037 34.6954 27.319C34.2116 26.8343 33.6369 26.4498 33.0042 26.1874C32.3716 25.9251 31.6935 25.79 31.0086 25.79Z" fill="#192144"/>
<path d="M36.4122 26.7949C37.0635 26.7949 37.5914 26.267 37.5914 25.6157C37.5914 24.9645 37.0635 24.4365 36.4122 24.4365C35.761 24.4365 35.233 24.9645 35.233 25.6157C35.233 26.267 35.761 26.7949 36.4122 26.7949Z" fill="#192144"/>
</svg>
