<svg xmlns="http://www.w3.org/2000/svg" width="40" height="40" fill="none">
  <circle cx="20" cy="20" r="20" fill="#FFBD30"/>
  <path fill="#161C35" d="M12.0166 15.3253l6.75 4.2304c.2268.1418.5202.209.8154.209s.5886-.0672.8154-.209l6.75-4.2304c.4401-.2762.8559-1.3503.0486-1.3503H11.9689c-.8073 0-.3915 1.0741.0477 1.3503zm15.3351 2.3131l-6.9543 4.2284c-.306.1869-.5202.2089-.8154.2089s-.5094-.022-.8154-.2089c-.306-.1869-6.4197-3.926-6.9192-4.2294-.351-.2142-.3474.0367-.3474.2299v7.6577c0 .441.5094 1.05.9 1.05h14.4c.3906 0 .9-.609.9-1.05v-7.6566c0-.1932.0036-.4442-.3483-.23z"/>
</svg>
